<?xml version="1.0" encoding="UTF-8" standalone="no"?>
<!DOCTYPE svg PUBLIC "-//W3C//DTD SVG 20010904//EN"
              "http://www.w3.org/TR/2001/REC-SVG-20010904/DTD/svg10.dtd">

<svg xmlns="http://www.w3.org/2000/svg"
     width="2.43056in" height="4.90278in"
     viewBox="0 0 175 353">
  <path id="Selection"
        fill="none" stroke="black" stroke-width="1"
        d="M 78.00,16.00
           C 78.00,16.00 117.00,16.00 117.00,16.00
             116.88,19.40 117.66,32.12 115.38,33.98
             113.93,35.16 110.79,34.98 109.00,35.00
             109.00,35.00 110.83,55.00 110.83,55.00
             110.83,55.00 116.00,115.00 116.00,115.00
             128.78,117.43 135.85,128.55 136.00,141.00
             136.00,141.00 136.00,285.00 136.00,285.00
             136.00,285.00 136.00,302.00 136.00,302.00
             136.00,313.23 136.32,324.18 123.00,328.20
             120.02,329.10 117.07,329.00 114.00,329.00
             114.00,329.00 59.00,329.00 59.00,329.00
             43.25,328.92 38.02,319.39 38.00,305.00
             38.00,305.00 38.00,145.00 38.00,145.00
             38.01,136.26 39.63,127.67 46.18,121.30
             51.99,115.65 56.15,116.49 58.11,111.89
             58.11,111.89 61.16,86.00 61.16,86.00
             61.16,86.00 66.00,35.00 66.00,35.00
             66.00,35.00 57.00,34.00 57.00,34.00
             57.00,34.00 57.00,17.00 57.00,17.00
             57.00,17.00 78.00,16.00 78.00,16.00 Z" />
</svg>
