<?xml version="1.0" encoding="UTF-8" standalone="no"?>
<svg
   xmlns:dc="http://purl.org/dc/elements/1.1/"
   xmlns:cc="http://creativecommons.org/ns#"
   xmlns:rdf="http://www.w3.org/1999/02/22-rdf-syntax-ns#"
   xmlns:svg="http://www.w3.org/2000/svg"
   xmlns="http://www.w3.org/2000/svg"
   xmlns:sodipodi="http://sodipodi.sourceforge.net/DTD/sodipodi-0.dtd"
   xmlns:inkscape="http://www.inkscape.org/namespaces/inkscape"
   viewBox="0 0 129.64583 679.97919"
   height="2570"
   width="490"
   version="1.1"
   id="svg306"
   sodipodi:docname="icons.svg"
   inkscape:version="0.92.3 (2405546, 2018-03-11)">
  <metadata
     id="metadata312">
    <rdf:RDF>
      <cc:Work
         rdf:about="">
        <dc:format>image/svg+xml</dc:format>
        <dc:type
           rdf:resource="http://purl.org/dc/dcmitype/StillImage" />
      </cc:Work>
    </rdf:RDF>
  </metadata>
  <defs
     id="defs310" />
  <sodipodi:namedview
     pagecolor="#ffffff"
     bordercolor="#666666"
     borderopacity="1"
     objecttolerance="10"
     gridtolerance="10"
     guidetolerance="10"
     inkscape:pageopacity="0"
     inkscape:pageshadow="2"
     inkscape:window-width="1920"
     inkscape:window-height="1008"
     id="namedview308"
     showgrid="false"
     inkscape:zoom="0.32784977"
     inkscape:cx="245.07526"
     inkscape:cy="1276.8256"
     inkscape:window-x="0"
     inkscape:window-y="0"
     inkscape:window-maximized="1"
     inkscape:current-layer="g304" />
  <g
     id="g304">
    <g
       id="g12"
       style="fill:#161616">
      <path
         d="m 23.824,8.094 c -3.177,2.198 -4.163,5.891 -4.163,12.749 0,6.858 0.986,10.551 4.163,12.749 3.177,2.198 18.47,-3.693 18.47,-12.749 0,-9.056 -15.293,-14.924 -18.47,-12.749 z"
         id="path2"
         inkscape:connector-curvature="0" />
      <path
         d="M 16.878,29.527 3.381,35.11 c -1.315,0.527 -0.723,2.704 0.592,2.198 L 17.47,31.725 c 1.315,-0.527 0.745,-2.704 -0.592,-2.198 z"
         id="path4"
         inkscape:connector-curvature="0" />
      <path
         d="M 16.878,23.262 3.381,28.824 c -1.315,0.55 -0.723,2.704 0.592,2.198 L 17.47,25.46 c 1.315,-0.55 0.745,-2.704 -0.592,-2.198 z"
         id="path6"
         inkscape:connector-curvature="0" />
      <path
         d="M 16.878,16.975 3.381,22.558 c -1.315,0.527 -0.723,2.704 0.592,2.198 L 17.47,19.173 c 1.315,-0.527 0.745,-2.704 -0.592,-2.198 z"
         id="path8"
         inkscape:connector-curvature="0" />
      <path
         d="M 16.878,10.645 3.381,16.228 c -1.315,0.527 -0.723,2.704 0.592,2.198 l 13.583,-5.583 c 1.315,-0.527 0.745,-2.704 -0.592,-2.198 z"
         id="path10"
         inkscape:connector-curvature="0" />
    </g>
    <g
       id="g24"
       style="fill:#fb9900">
      <path
         d="m 108.49,8.094 c -3.177,2.198 -4.163,5.891 -4.163,12.749 0,6.858 0.986,10.551 4.163,12.749 3.177,2.198 18.47,-3.693 18.47,-12.749 0,-9.056 -15.293,-14.924 -18.47,-12.749 z"
         id="path14"
         inkscape:connector-curvature="0" />
      <path
         d="M 101.544,29.527 88.047,35.11 c -1.315,0.527 -0.723,2.704 0.592,2.198 l 13.497,-5.583 c 1.315,-0.527 0.745,-2.704 -0.592,-2.198 z"
         id="path16"
         inkscape:connector-curvature="0" />
      <path
         d="m 101.544,23.262 -13.497,5.562 c -1.315,0.55 -0.723,2.704 0.592,2.198 l 13.497,-5.562 c 1.315,-0.55 0.745,-2.704 -0.592,-2.198 z"
         id="path18"
         inkscape:connector-curvature="0" />
      <path
         d="m 101.544,16.975 -13.497,5.583 c -1.315,0.527 -0.723,2.704 0.592,2.198 l 13.497,-5.583 c 1.315,-0.527 0.745,-2.704 -0.592,-2.198 z"
         id="path20"
         inkscape:connector-curvature="0" />
      <path
         d="m 101.544,10.645 -13.497,5.583 c -1.315,0.527 -0.723,2.704 0.592,2.198 l 13.583,-5.583 c 1.315,-0.527 0.745,-2.704 -0.592,-2.198 z"
         id="path22"
         inkscape:connector-curvature="0" />
    </g>
    <g
       transform="matrix(0.308,0,0,0.308,83.609,0.601)"
       id="g34">
      <path
         transform="translate(-60.721,-44.232)"
         d="m 184,211.005 -0.9,-0.845 -5.633,5.633 0.845,0.845 a 50.7,50.7 0 0 1 0,72.442 l -0.845,0.845 5.633,5.633 0.9,-0.9 a 58.754,58.754 0 0 0 0,-83.934 z"
         id="path26"
         inkscape:connector-curvature="0"
         style="fill:#ed1c24" />
      <path
         transform="translate(-146.854,-44.139)"
         d="m 183.049,215.813 -5.633,-5.633 -0.9,0.845 a 58.754,58.754 0 0 0 0,83.934 l 0.9,0.9 5.633,-5.633 -0.9,-0.845 a 50.7,50.7 0 0 1 0,-72.442 z"
         id="path28"
         inkscape:connector-curvature="0"
         style="fill:#ed1c24" />
      <path
         d="m 69.036,182.771 h 15.435 v 11.83 l -2.986,23.772 h -9.52 l -2.929,-23.772 z m 0.507,39.432 h 14.421 v 12.731 H 69.036 Z"
         id="path30"
         inkscape:connector-curvature="0"
         style="fill:#ed1c24" />
      <circle
         cx="76.029999"
         cy="208.563"
         r="42.285"
         id="circle32"
         style="fill:none;stroke:#ed1c24;stroke-width:9.02200031;stroke-linejoin:round" />
    </g>
    <g
       transform="translate(0,382.979)"
       id="g44">
      <path
         d="m 36.903,-331.024 -0.277,-0.26 -1.735,1.735 0.26,0.26 a 15.612,15.612 0 0 1 0,22.307 l -0.26,0.26 1.735,1.735 0.277,-0.277 a 18.092,18.092 0 0 0 0,-25.846 z"
         id="path36"
         inkscape:connector-curvature="0"
         style="fill:#161616" />
      <path
         d="m 10.088,-329.515 -1.735,-1.735 -0.277,0.26 a 18.092,18.092 0 0 0 0,25.846 l 0.277,0.277 1.735,-1.735 -0.277,-0.26 a 15.612,15.612 0 0 1 0,-22.307 z"
         id="path38"
         inkscape:connector-curvature="0"
         style="fill:#161616" />
      <path
         d="m 20.2,-326.098 h 4.753 v 3.643 l -0.919,7.32 h -2.931 l -0.902,-7.32 z m 0.156,12.142 h 4.441 v 3.92 H 20.2 Z"
         id="path40"
         inkscape:connector-curvature="0"
         style="fill:#161616" />
      <circle
         cx="22.354"
         cy="-318.15601"
         id="ellipse42"
         r="13.021"
         style="fill:none;stroke:#161616;stroke-width:2.77800012;stroke-linejoin:round" />
    </g>
    <g
       id="g52"
       style="fill:#161616">
      <path
         d="m 360.785,231.561 h -8.606 c 0,0 -4.749,-17.361 -6.455,-17.361 h -53.641 c -1.632,0 -6.38,17.361 -6.38,17.361 H 277.1 c 0,0 -3.264,1.261 -1.929,4.155 1.335,2.894 5.416,2.374 8.161,2.448 l -0.371,1.039 -5.564,3.339 v 33.386 h 16.916 v -5.119 h 49.263 v 5.119 h 16.916 v -33.535 l -5.565,-3.339 -0.371,-1.039 c 2.745,0 7.419,-0.445 8.161,-2.448 z m -41.844,5.787 h -31.606 a 166.78,166.78 0 0 1 6.6,-19.438 h 50.005 a 166.848,166.848 0 0 1 6.6,19.438 z"
         transform="matrix(0.324,0,0,0.324,-83.133,17.969)"
         id="path46"
         inkscape:connector-curvature="0" />
      <path
         d="m 275.65,223.08 h 16.545 a 35.685,35.685 0 0 1 16.841,22.258 c 3.264,14.838 -24.706,34.425 -24.706,34.425 0,0 12.316,-20.774 12.316,-27.377 0,-6.603 -19.735,-18.993 -21,-21.367 a 16.1,16.1 0 0 1 0,-7.938 z"
         transform="matrix(0.324,0,0,0.324,-82.496,36.438)"
         id="path48"
         inkscape:connector-curvature="0" />
      <path
         d="m 284.588,223.08 h 16.545 a 35.464,35.464 0 0 1 16.767,22.258 c 3.339,14.838 -24.632,34.425 -24.632,34.425 0,0 12.242,-20.774 12.242,-27.377 0,-6.603 -19.661,-18.993 -20.922,-21.367 a 14.842,14.842 0 0 1 0,-7.939 z"
         transform="matrix(0.324,0,0,0.324,-63.998,36.438)"
         id="path50"
         inkscape:connector-curvature="0" />
    </g>
    <g
       id="g60"
       style="fill:#fb9900">
      <path
         transform="matrix(0.324,0,0,0.324,1.533,17.969)"
         d="m 360.785,231.561 h -8.606 c 0,0 -4.749,-17.361 -6.455,-17.361 h -53.641 c -1.632,0 -6.38,17.361 -6.38,17.361 H 277.1 c 0,0 -3.264,1.261 -1.929,4.155 1.335,2.894 5.416,2.374 8.161,2.448 l -0.371,1.039 -5.564,3.339 v 33.386 h 16.916 v -5.119 h 49.263 v 5.119 h 16.916 v -33.535 l -5.565,-3.339 -0.371,-1.039 c 2.745,0 7.419,-0.445 8.161,-2.448 z m -41.844,5.787 h -31.606 a 166.78,166.78 0 0 1 6.6,-19.438 h 50.005 a 166.848,166.848 0 0 1 6.6,19.438 z"
         id="path54"
         inkscape:connector-curvature="0" />
      <path
         transform="matrix(0.324,0,0,0.324,2.17,36.438)"
         d="m 275.65,223.08 h 16.545 a 35.685,35.685 0 0 1 16.841,22.258 c 3.264,14.838 -24.706,34.425 -24.706,34.425 0,0 12.316,-20.774 12.316,-27.377 0,-6.603 -19.735,-18.993 -21,-21.367 a 16.1,16.1 0 0 1 0,-7.938 z"
         id="path56"
         inkscape:connector-curvature="0" />
      <path
         transform="matrix(0.324,0,0,0.324,20.668,36.438)"
         d="m 284.588,223.08 h 16.545 a 35.464,35.464 0 0 1 16.767,22.258 c 3.339,14.838 -24.632,34.425 -24.632,34.425 0,0 12.242,-20.774 12.242,-27.377 0,-6.603 -19.661,-18.993 -20.922,-21.367 a 14.842,14.842 0 0 1 0,-7.939 z"
         id="path58"
         inkscape:connector-curvature="0" />
    </g>
    <path
       d="m 38.971,-229.16 v -10.8 a 3.756,3.756 0 0 0 -0.545,-1.878 42.293,42.293 0 0 0 -3.926,-5.522 c -1.127,-1.446 -2.292,-2.855 -3.456,-4.244 l -0.188,-0.226 a 0.657,0.657 0 0 0 -1.071,0 1.127,1.127 0 0 0 0,1.334 c 0.845,0.995 1.69,2.01 2.517,3.043 l 0.77,0.939 v 6.273 a 1.425,1.425 0 0 0 0.093,0.638 c 0,0.113 0.15,0.226 0.207,0.338 l 0.62,0.939 2.066,3.174 1.409,2.16 v 10.5 a 2.953,2.953 0 0 1 0,0.432 2.184,2.184 0 0 1 -0.093,0.376 v 0.244 l -0.169,0.357 a 0.693,0.693 0 0 1 -0.093,0.207 c 0,0.093 -0.131,0.207 0,0 l -0.263,0.357 -0.131,0.15 -0.338,0.282 a 1.002,1.002 0 0 0 -0.188,0.113 h -0.113 l -0.432,0.15 h -0.413 a 2.653,2.653 0 0 1 -0.545,0 H 34.37 l -0.394,-0.132 a 0.77,0.77 0 0 1 -0.638,0.188 1.101,1.101 0 0 1 -0.3,-0.226 l -0.15,-0.188 -0.093,-0.131 c 0,-0.113 -0.132,-0.226 -0.188,-0.357 a 2.754,2.754 0 0 1 -0.131,-0.357 v -0.188 a 3.129,3.129 0 0 0 -0.169,-0.695 c -0.056,-0.226 0,-0.207 0,-0.319 v -7.571 a 7.833,7.833 0 0 0 -0.093,-1.334 4.452,4.452 0 0 0 -1.597,-2.742 4.809,4.809 0 0 0 -3.118,-0.676 v -16.904 a 1.728,1.728 0 0 0 -1.502,-1.878 H 9.634 a 1.747,1.747 0 0 0 -1.521,1.878 v 34.748 H 5.915 v 3.062 h 23.667 v -3.062 H 27.46 v -16.209 h 1.578 l 0.451,0.15 h 0.244 c 0,0 0.282,0.15 0.319,0.263 l 0.093,0.131 0.113,0.15 c 0,0.207 0.188,0.394 0.263,0.601 a 0.262,0.262 0 0 1 0,0.113 v 8.395 a 7.831,7.831 0 0 0 0.939,3.343 3.4,3.4 0 0 0 2.987,2.179 4.095,4.095 0 0 0 3.756,-2.104 7.174,7.174 0 0 0 0.864,-3.531 c -0.094,-2.064 -0.094,-4.055 -0.094,-5.933 z M 24.94,-237.8 a 1.146,1.146 0 0 1 -0.996,1.258 H 11.548 a 1.146,1.146 0 0 1 -0.995,-1.258 v -10.687 a 1.146,1.146 0 0 1 0.995,-1.258 h 12.396 a 1.146,1.146 0 0 1 0.995,1.258 z m 5.823,7.269 z m 6.424,9.053 v -0.112 l -0.093,0.075 z m 0.282,-18.67 v 4.17 l -2.591,-3.982 -0.3,-0.451 v -4.189 c 0.657,0.864 1.296,1.747 1.878,2.686 l 0.376,0.563 v 0.132 a 2.038,2.038 0 0 1 0.15,0.282 c 0,0.15 0.169,0.3 0.244,0.451 l 0.093,0.207 v 0.113 z"
       transform="translate(0,382.979)"
       id="path62"
       inkscape:connector-curvature="0"
       style="fill:#f6f6f6" />
    <path
       d="m 81.304,-229.16 v -10.8 a 3.756,3.756 0 0 0 -0.545,-1.878 42.293,42.293 0 0 0 -3.926,-5.522 c -1.127,-1.446 -2.292,-2.855 -3.456,-4.244 l -0.188,-0.226 a 0.657,0.657 0 0 0 -1.071,0 1.127,1.127 0 0 0 0,1.334 c 0.845,0.995 1.69,2.01 2.517,3.043 l 0.77,0.939 v 6.273 a 1.425,1.425 0 0 0 0.093,0.638 c 0,0.113 0.15,0.226 0.207,0.338 l 0.62,0.939 2.066,3.174 1.409,2.16 v 10.5 a 2.953,2.953 0 0 1 0,0.432 2.184,2.184 0 0 1 -0.093,0.376 v 0.244 l -0.169,0.357 a 0.693,0.693 0 0 1 -0.093,0.207 c 0,0.093 -0.131,0.207 0,0 l -0.263,0.357 -0.131,0.15 -0.338,0.282 a 1.002,1.002 0 0 0 -0.188,0.113 h -0.113 l -0.432,0.15 h -0.413 a 2.653,2.653 0 0 1 -0.545,0 h -0.319 l -0.394,-0.132 a 0.77,0.77 0 0 1 -0.638,0.188 1.101,1.101 0 0 1 -0.3,-0.226 l -0.15,-0.188 -0.093,-0.131 c 0,-0.113 -0.132,-0.226 -0.188,-0.357 a 2.754,2.754 0 0 1 -0.131,-0.357 v -0.188 a 3.129,3.129 0 0 0 -0.169,-0.695 c -0.056,-0.226 0,-0.207 0,-0.319 v -7.571 a 7.833,7.833 0 0 0 -0.093,-1.334 4.452,4.452 0 0 0 -1.597,-2.742 4.809,4.809 0 0 0 -3.118,-0.676 v -16.904 a 1.728,1.728 0 0 0 -1.502,-1.878 H 51.967 a 1.747,1.747 0 0 0 -1.521,1.878 v 34.748 h -2.198 v 3.062 h 23.667 v -3.062 h -2.122 v -16.209 h 1.578 l 0.451,0.15 h 0.244 c 0,0 0.282,0.15 0.319,0.263 l 0.093,0.131 0.113,0.15 c 0,0.207 0.188,0.394 0.263,0.601 a 0.262,0.262 0 0 1 0,0.113 v 8.395 a 7.831,7.831 0 0 0 0.939,3.343 3.4,3.4 0 0 0 2.987,2.179 4.095,4.095 0 0 0 3.756,-2.104 7.174,7.174 0 0 0 0.864,-3.531 c -0.094,-2.064 -0.094,-4.055 -0.094,-5.933 z m -14.031,-8.64 a 1.146,1.146 0 0 1 -0.996,1.258 H 53.881 a 1.146,1.146 0 0 1 -0.995,-1.258 v -10.687 a 1.146,1.146 0 0 1 0.995,-1.258 h 12.396 a 1.146,1.146 0 0 1 0.995,1.258 z m 5.823,7.269 z m 6.424,9.053 v -0.112 l -0.093,0.075 z m 0.282,-18.67 v 4.17 l -2.591,-3.982 -0.3,-0.451 v -4.189 c 0.657,0.864 1.296,1.747 1.878,2.686 l 0.376,0.563 v 0.132 a 2.038,2.038 0 0 1 0.15,0.282 c 0,0.15 0.169,0.3 0.244,0.451 l 0.093,0.207 v 0.113 z"
       transform="translate(0,382.979)"
       id="path64"
       inkscape:connector-curvature="0"
       style="fill:#fb9900" />
    <g
       id="g80"
       style="fill:#161616">
      <path
         d="m 24.007,178.975 c -3.141,2.167 -4.117,5.807 -4.117,12.568 0,6.761 0.975,10.401 4.117,12.568 3.142,2.167 18.267,-3.64 18.267,-12.568 0,-8.927 -15.038,-14.713 -18.267,-12.568 z"
         id="path68"
         inkscape:connector-curvature="0" />
      <path
         transform="matrix(0.302,0,0,0.302,-63.089,133.133)"
         d="m 272.9,224.832 h -50.87 a 3.659,3.659 0 1 0 0,7.175 h 50.87 a 3.659,3.659 0 1 0 0,-7.175 z"
         id="path70"
         inkscape:connector-curvature="0" />
      <path
         transform="matrix(0.302,0,0,0.302,-62.96,128.602)"
         d="m 265.227,222.33 h -44.2 c -4.377,0 -4.448,7.175 0,7.175 h 44.2 a 3.659,3.659 0 0 0 0,-7.175 z"
         id="path72"
         inkscape:connector-curvature="0" />
      <path
         transform="matrix(0.302,0,0,0.302,-62.96,124.033)"
         d="m 265.227,219.88 h -44.2 c -4.377,0 -4.448,7.175 0,7.175 h 44.2 a 3.659,3.659 0 0 0 0,-7.175 z"
         id="path74"
         inkscape:connector-curvature="0" />
      <path
         transform="matrix(0.302,0,0,0.302,-62.96,119.483)"
         d="m 265.227,217.44 h -44.2 c -4.377,0 -4.448,7.175 0,7.175 h 44.2 a 3.659,3.659 0 0 0 0,-7.175 z"
         id="path76"
         inkscape:connector-curvature="0" />
      <path
         transform="matrix(0.302,0,0,0.302,-63.089,114.914)"
         d="m 272.9,215.062 h -50.87 a 3.659,3.659 0 1 0 0,7.175 h 50.87 a 3.659,3.659 0 1 0 0,-7.175 z"
         id="path78"
         inkscape:connector-curvature="0" />
    </g>
    <g
       id="g94"
       style="fill:#40b6ff">
      <path
         d="m 108.674,178.975 c -3.141,2.167 -4.117,5.807 -4.117,12.568 0,6.761 0.975,10.401 4.117,12.568 3.142,2.167 18.267,-3.64 18.267,-12.568 0,-8.927 -15.038,-14.713 -18.267,-12.568 z"
         id="path82"
         inkscape:connector-curvature="0" />
      <path
         transform="matrix(0.302,0,0,0.302,21.578,133.133)"
         d="m 272.9,224.832 h -50.87 a 3.659,3.659 0 1 0 0,7.175 h 50.87 a 3.659,3.659 0 1 0 0,-7.175 z"
         id="path84"
         inkscape:connector-curvature="0" />
      <path
         transform="matrix(0.302,0,0,0.302,21.707,128.602)"
         d="m 265.227,222.33 h -44.2 c -4.377,0 -4.448,7.175 0,7.175 h 44.2 a 3.659,3.659 0 0 0 0,-7.175 z"
         id="path86"
         inkscape:connector-curvature="0" />
      <path
         transform="matrix(0.302,0,0,0.302,21.707,124.033)"
         d="m 265.227,219.88 h -44.2 c -4.377,0 -4.448,7.175 0,7.175 h 44.2 a 3.659,3.659 0 0 0 0,-7.175 z"
         id="path88"
         inkscape:connector-curvature="0" />
      <path
         transform="matrix(0.302,0,0,0.302,21.707,119.483)"
         d="m 265.227,217.44 h -44.2 c -4.377,0 -4.448,7.175 0,7.175 h 44.2 a 3.659,3.659 0 0 0 0,-7.175 z"
         id="path90"
         inkscape:connector-curvature="0" />
      <path
         transform="matrix(0.302,0,0,0.302,21.578,114.914)"
         d="m 272.9,215.062 h -50.87 a 3.659,3.659 0 1 0 0,7.175 h 50.87 a 3.659,3.659 0 1 0 0,-7.175 z"
         id="path92"
         inkscape:connector-curvature="0" />
    </g>
    <g
       id="g104"
       style="fill:#161616">
      <path
         d="m 40.928,246.518 v -20.562 h 0.312 v -3.391 h -3.222 v -3.127 h -3.126 v 3.126 h -5.171 v -4.353 h -14.43 v 4.353 h -5.146 v -3.127 H 6.946 v 3.126 H 3.627 v 3.391 h 0.337 v 20.634 c -1.082,0.289 -1.323,2.839 -1.323,2.839 h 39.633 c 0,0 -0.168,-2.622 -1.347,-2.911 z m -0.433,-0.242 H 4.421 V 226.1 H 40.495 Z M 17.36,220.399 h 10.149 v 2.092 H 17.36 Z"
         id="path96"
         inkscape:connector-curvature="0" />
      <path
         d="m 22.531,244.786 -0.457,-5.459 2.91,-0.577 -3.319,-6.925 0.866,5.557 -2.862,0.938 z"
         id="path98"
         inkscape:connector-curvature="0" />
      <path
         d="m 9.64,234.998 h 1.323 v -3.054 h 2.934 v -1.275 h -2.934 v -3.03 H 9.64 v 3.03 H 6.754 v 1.275 H 9.64 Z"
         id="path100"
         inkscape:connector-curvature="0" />
      <path
         d="m 30.322,230.477 h 7.792 v 1.275 h -7.792 z"
         id="path102"
         inkscape:connector-curvature="0" />
    </g>
    <g
       id="g114"
       style="fill:#fb9900">
      <path
         d="m 83.261,246.518 v -20.562 h 0.312 v -3.391 h -3.222 v -3.127 h -3.126 v 3.126 h -5.171 v -4.353 h -14.43 v 4.353 h -5.146 v -3.127 h -3.199 v 3.126 H 45.96 v 3.391 h 0.337 v 20.634 c -1.082,0.289 -1.323,2.839 -1.323,2.839 h 39.633 c 0,0 -0.168,-2.622 -1.347,-2.911 z m -0.433,-0.242 H 46.754 V 226.1 H 82.828 Z M 59.693,220.399 h 10.149 v 2.092 H 59.693 Z"
         id="path106"
         inkscape:connector-curvature="0" />
      <path
         d="m 64.864,244.786 -0.457,-5.459 2.91,-0.577 -3.319,-6.925 0.866,5.557 -2.862,0.938 z"
         id="path108"
         inkscape:connector-curvature="0" />
      <path
         d="m 51.973,234.998 h 1.323 v -3.054 h 2.934 v -1.275 h -2.934 v -3.03 h -1.323 v 3.03 h -2.886 v 1.275 h 2.886 z"
         id="path110"
         inkscape:connector-curvature="0" />
      <path
         d="m 72.655,230.477 h 7.792 v 1.275 h -7.792 z"
         id="path112"
         inkscape:connector-curvature="0" />
    </g>
    <g
       id="g124"
       style="fill:#ed1c24">
      <path
         d="m 125.594,246.518 v -20.562 h 0.312 v -3.391 h -3.222 v -3.127 h -3.126 v 3.126 h -5.171 v -4.353 h -14.43 v 4.353 h -5.146 v -3.127 h -3.199 v 3.126 h -3.319 v 3.391 h 0.337 v 20.634 c -1.082,0.289 -1.323,2.839 -1.323,2.839 h 39.633 c 0,0 -0.168,-2.622 -1.347,-2.911 z m -0.433,-0.242 H 89.087 V 226.1 h 36.074 z m -23.135,-25.877 h 10.149 v 2.092 h -10.149 z"
         id="path116"
         inkscape:connector-curvature="0" />
      <path
         d="m 107.197,244.786 -0.457,-5.459 2.91,-0.577 -3.319,-6.925 0.866,5.557 -2.862,0.938 z"
         id="path118"
         inkscape:connector-curvature="0" />
      <path
         d="m 94.306,234.998 h 1.323 v -3.054 h 2.934 v -1.275 h -2.934 v -3.03 h -1.323 v 3.03 H 91.42 v 1.275 h 2.886 z"
         id="path120"
         inkscape:connector-curvature="0" />
      <path
         d="m 114.988,230.477 h 7.792 v 1.275 h -7.792 z"
         id="path122"
         inkscape:connector-curvature="0" />
    </g>
    <g
       id="g132"
       style="fill:#161616">
      <path
         transform="matrix(0.307,0,0,0.307,-107.061,209.699)"
         d="m 458.062,221 a 27.781,27.781 0 0 0 -24.689,14.9 h -68.385 l -7.648,8.323 13.5,14.566 7.311,-7.648 6.917,7.648 7.311,-7.648 4.668,4.837 4.33,-4.5 4.162,4.5 5.286,-4.837 8.942,7.648 h 12.2 A 28.119,28.119 0 1 0 458.062,221 Z m 9.842,34.98 a 7.48,7.48 0 1 1 7.014,-3.526 7.479,7.479 0 0 1 -7.014,3.526 z"
         id="path126"
         inkscape:connector-curvature="0" />
      <path
         transform="matrix(0.307,0,0,0.307,-99.978,193.077)"
         d="m 393.542,271.714 a 31.212,31.212 0 1 1 31.212,-31.214 31.212,31.212 0 0 1 -31.212,31.212 z m 0,-56.856 a 25.7,25.7 0 1 0 25.644,25.642 25.7,25.7 0 0 0 -25.644,-25.643 z"
         id="path128"
         inkscape:connector-curvature="0" />
      <path
         transform="matrix(0.307,0,0,0.307,-94.47,196.392)"
         d="m 385.332,221.213 a 9.561,9.561 0 1 0 -13.554,8.661 v 16.478 h 8.829 V 229.48 a 9.506,9.506 0 0 0 4.725,-8.267 z"
         id="path130"
         inkscape:connector-curvature="0" />
    </g>
    <g
       id="g140"
       style="fill:#ed1c24">
      <path
         transform="matrix(0.307,0,0,0.307,-22.394,209.699)"
         d="m 458.062,221 a 27.781,27.781 0 0 0 -24.689,14.9 h -68.385 l -7.648,8.323 13.5,14.566 7.311,-7.648 6.917,7.648 7.311,-7.648 4.668,4.837 4.33,-4.5 4.162,4.5 5.286,-4.837 8.942,7.648 h 12.2 A 28.119,28.119 0 1 0 458.062,221 Z m 9.842,34.98 a 7.48,7.48 0 1 1 7.014,-3.526 7.479,7.479 0 0 1 -7.014,3.526 z"
         id="path134"
         inkscape:connector-curvature="0" />
      <path
         transform="matrix(0.307,0,0,0.307,-15.311,193.077)"
         d="m 393.542,271.714 a 31.212,31.212 0 1 1 31.212,-31.214 31.212,31.212 0 0 1 -31.212,31.212 z m 0,-56.856 a 25.7,25.7 0 1 0 25.644,25.642 25.7,25.7 0 0 0 -25.644,-25.643 z"
         id="path136"
         inkscape:connector-curvature="0" />
      <path
         transform="matrix(0.307,0,0,0.307,-9.803,196.392)"
         d="m 385.332,221.213 a 9.561,9.561 0 1 0 -13.554,8.661 v 16.478 h 8.829 V 229.48 a 9.506,9.506 0 0 0 4.725,-8.267 z"
         id="path138"
         inkscape:connector-curvature="0" />
    </g>
    <g
       id="g146"
       style="fill:#161616">
      <path
         transform="matrix(0.307,0,0,0.307,-134.875,245.503)"
         d="m 550.8,264.627 a 11.647,11.647 0 0 1 -11.461,-9.842 c -15.011,0.436 -32.639,0.623 -48.086,0.5 a 11.648,11.648 0 0 1 -22.922,-0.5 c -18.686,-0.809 -19.371,-2.118 -19.994,-3.862 -1.993,-5.668 3.675,-17.191 11.648,-20.43 a 127.25,127.25 0 0 1 27.656,-3.675 C 507.946,211.06 509.067,211.06 510,211.06 h 31.767 c 6.228,0 13.89,10.527 17.066,15.26 h 8.967 a 5.17,5.17 0 0 1 4.672,3.488 30.71,30.71 0 0 1 -1.06,21.925 c -0.747,0.872 -1.557,1.433 -8.782,1.993 a 11.71,11.71 0 0 1 -11.83,10.901 z m -6.229,-15.011 v 3.364 a 6.665,6.665 0 1 0 13.267,0 6.875,6.875 0 0 0 0,-1.121 l -0.5,-2.8 h 2.8 a 58.176,58.176 0 0 0 8.035,-0.81 28.212,28.212 0 0 0 -0.311,-16.755 h -11.4 l -0.747,-1.121 c -4.485,-6.789 -11.025,-14.139 -13.641,-14.139 h -31.138 c -2.18,1.308 -11.9,8.533 -20.43,15.2 l -0.623,0.5 h -0.81 a 122.592,122.592 0 0 0 -26.721,3.363 17.315,17.315 0 0 0 -9.031,13.267 120.068,120.068 0 0 0 17.939,1.433 h 1.993 v 3.052 a 6.665,6.665 0 1 0 13.267,0 V 250.3 h 2.616 c 16.755,0 36.438,0 52.633,-0.5 z"
         id="path142"
         inkscape:connector-curvature="0" />
      <path
         transform="matrix(0.307,0,0,0.307,-106.648,245.447)"
         d="m 468.51,225.2 h -0.934 l -2.055,-2.678 c 0.374,-0.374 9.032,-9.655 10.4,-10.963 1.368,-1.308 6.229,0 9.218,1.806 l -2.117,3.364 a 17.631,17.631 0 0 0 -4.547,-2.056 z"
         id="path144"
         inkscape:connector-curvature="0" />
    </g>
    <g
       id="g152"
       style="fill:#fb9900">
      <path
         transform="matrix(0.307,0,0,0.307,-50.208,245.503)"
         d="m 550.8,264.627 a 11.647,11.647 0 0 1 -11.461,-9.842 c -15.011,0.436 -32.639,0.623 -48.086,0.5 a 11.648,11.648 0 0 1 -22.922,-0.5 c -18.686,-0.809 -19.371,-2.118 -19.994,-3.862 -1.993,-5.668 3.675,-17.191 11.648,-20.43 a 127.25,127.25 0 0 1 27.656,-3.675 C 507.946,211.06 509.067,211.06 510,211.06 h 31.767 c 6.228,0 13.89,10.527 17.066,15.26 h 8.967 a 5.17,5.17 0 0 1 4.672,3.488 30.71,30.71 0 0 1 -1.06,21.925 c -0.747,0.872 -1.557,1.433 -8.782,1.993 a 11.71,11.71 0 0 1 -11.83,10.901 z m -6.229,-15.011 v 3.364 a 6.665,6.665 0 1 0 13.267,0 6.875,6.875 0 0 0 0,-1.121 l -0.5,-2.8 h 2.8 a 58.176,58.176 0 0 0 8.035,-0.81 28.212,28.212 0 0 0 -0.311,-16.755 h -11.4 l -0.747,-1.121 c -4.485,-6.789 -11.025,-14.139 -13.641,-14.139 h -31.138 c -2.18,1.308 -11.9,8.533 -20.43,15.2 l -0.623,0.5 h -0.81 a 122.592,122.592 0 0 0 -26.721,3.363 17.315,17.315 0 0 0 -9.031,13.267 120.068,120.068 0 0 0 17.939,1.433 h 1.993 v 3.052 a 6.665,6.665 0 1 0 13.267,0 V 250.3 h 2.616 c 16.755,0 36.438,0 52.633,-0.5 z"
         id="path148"
         inkscape:connector-curvature="0" />
      <path
         transform="matrix(0.307,0,0,0.307,-21.981,245.447)"
         d="m 468.51,225.2 h -0.934 l -2.055,-2.678 c 0.374,-0.374 9.032,-9.655 10.4,-10.963 1.368,-1.308 6.229,0 9.218,1.806 l -2.117,3.364 a 17.631,17.631 0 0 0 -4.547,-2.056 z"
         id="path150"
         inkscape:connector-curvature="0" />
    </g>
    <g
       id="g164"
       style="fill:#161616">
      <path
         transform="matrix(0.325,0,0,0.325,-95.062,277.613)"
         d="m 315.06,288.445 76.26,-73.585 4.32,4.252 -59.869,57.538 1.44,3.7 h 0.617 a 70.219,70.219 0 0 1 29.351,-5.075 123.441,123.441 0 0 1 41.147,9.875 l -1.92,5.486 a 99.918,99.918 0 0 0 -39.158,-9.67 c -18.722,0 -44.37,11.178 -48.005,12.893 z"
         id="path154"
         inkscape:connector-curvature="0" />
      <path
         transform="matrix(0.325,0,0,0.325,-88.836,282.449)"
         d="m 367.775,219.732 c -0.754,-0.686 -2.125,-1.715 -2.949,-2.332 l -46.5,44.782 0.48,1.3 a 74.133,74.133 0 0 1 29.214,-4.869 103.972,103.972 0 0 1 30.381,5.692 18.524,18.524 0 0 0 0.411,-9.464 q -4.938,-16.8 -9.944,-33.466 a 3.838,3.838 0 0 0 -1.093,-1.643 z"
         id="path156"
         inkscape:connector-curvature="0" />
      <path
         transform="matrix(0.325,0,0,0.325,-89.731,281.459)"
         d="m 378.963,273.8 1.714,-5.006 a 103.409,103.409 0 0 0 -29.9,-5.555 71.529,71.529 0 0 0 -29.283,5.006 l -0.754,0.412 -1.509,-3.84 46.976,-45.193 -5.487,-2.743 -42.86,41.146 2.675,16.116 h -0.343 v 0.411 a 107.191,107.191 0 0 1 30.792,-6.1 88.412,88.412 0 0 1 27.98,5.349 z"
         id="path158"
         inkscape:connector-curvature="0" />
      <path
         transform="matrix(0.325,0,0,0.325,-88.855,296.27)"
         d="m 348.494,224.66 a 103.489,103.489 0 0 0 -30.174,6.04 c 2.88,7.2 5.691,14.47 8.641,21.6 1.028,2.537 2.469,4.869 3.7,7.269 a 2.057,2.057 0 0 0 1.989,1.1 h 8.778 c -3.5,-9.4 -6.858,-18.585 -10.355,-27.431 a 44.233,44.233 0 0 1 31.546,0 l -10.355,27.431 h 9.4 a 1.577,1.577 0 0 0 1.1,-0.754 26.008,26.008 0 0 0 2.4,-4.252 c 3.017,-6.858 5.966,-13.716 8.846,-21.123 0.617,-1.577 1.166,-3.154 1.783,-4.8 a 88.053,88.053 0 0 0 -27.299,-5.08 z"
         id="path160"
         inkscape:connector-curvature="0" />
      <path
         transform="matrix(0.325,0,0,0.325,-89.712,272.369)"
         d="m 359.291,244.026 a 13.032,13.032 0 0 1 -5.006,-4.8 33.864,33.864 0 0 0 3.772,-4.046 17.077,17.077 0 0 0 2.194,-15.293 11.042,11.042 0 0 0 -10.012,-7.749 11.247,11.247 0 0 0 -10.9,6.172 17.35,17.35 0 0 0 3.086,18.722 16.455,16.455 0 0 0 2.537,2.057 15.641,15.641 0 0 1 -2.4,2.743 c -2.194,1.577 -4.457,2.881 -6.858,4.321 -2.401,1.44 -4.869,2.949 -7.27,4.526 a 3.293,3.293 0 0 0 -1.165,1.783 c -3.155,10.424 -6.241,20.574 -9.4,31.34 z"
         id="path162"
         inkscape:connector-curvature="0" />
    </g>
    <g
       id="g176"
       style="fill:#ed1c24">
      <path
         transform="matrix(0.325,0,0,0.325,-10.395,277.613)"
         d="m 315.06,288.445 76.26,-73.585 4.32,4.252 -59.869,57.538 1.44,3.7 h 0.617 a 70.219,70.219 0 0 1 29.351,-5.075 123.441,123.441 0 0 1 41.147,9.875 l -1.92,5.486 a 99.918,99.918 0 0 0 -39.158,-9.67 c -18.722,0 -44.37,11.178 -48.005,12.893 z"
         id="path166"
         inkscape:connector-curvature="0" />
      <path
         transform="matrix(0.325,0,0,0.325,-4.169,282.449)"
         d="m 367.775,219.732 c -0.754,-0.686 -2.125,-1.715 -2.949,-2.332 l -46.5,44.782 0.48,1.3 a 74.133,74.133 0 0 1 29.214,-4.869 103.972,103.972 0 0 1 30.381,5.692 18.524,18.524 0 0 0 0.411,-9.464 q -4.938,-16.8 -9.944,-33.466 a 3.838,3.838 0 0 0 -1.093,-1.643 z"
         id="path168"
         inkscape:connector-curvature="0" />
      <path
         transform="matrix(0.325,0,0,0.325,-5.064,281.459)"
         d="m 378.963,273.8 1.714,-5.006 a 103.409,103.409 0 0 0 -29.9,-5.555 71.529,71.529 0 0 0 -29.283,5.006 l -0.754,0.412 -1.509,-3.84 46.976,-45.193 -5.487,-2.743 -42.86,41.146 2.675,16.116 h -0.343 v 0.411 a 107.191,107.191 0 0 1 30.792,-6.1 88.412,88.412 0 0 1 27.98,5.349 z"
         id="path170"
         inkscape:connector-curvature="0" />
      <path
         transform="matrix(0.325,0,0,0.325,-4.188,296.27)"
         d="m 348.494,224.66 a 103.489,103.489 0 0 0 -30.174,6.04 c 2.88,7.2 5.691,14.47 8.641,21.6 1.028,2.537 2.469,4.869 3.7,7.269 a 2.057,2.057 0 0 0 1.989,1.1 h 8.778 c -3.5,-9.4 -6.858,-18.585 -10.355,-27.431 a 44.233,44.233 0 0 1 31.546,0 l -10.355,27.431 h 9.4 a 1.577,1.577 0 0 0 1.1,-0.754 26.008,26.008 0 0 0 2.4,-4.252 c 3.017,-6.858 5.966,-13.716 8.846,-21.123 0.617,-1.577 1.166,-3.154 1.783,-4.8 a 88.053,88.053 0 0 0 -27.299,-5.08 z"
         id="path172"
         inkscape:connector-curvature="0" />
      <path
         transform="matrix(0.325,0,0,0.325,-5.045,272.369)"
         d="m 359.291,244.026 a 13.032,13.032 0 0 1 -5.006,-4.8 33.864,33.864 0 0 0 3.772,-4.046 17.077,17.077 0 0 0 2.194,-15.293 11.042,11.042 0 0 0 -10.012,-7.749 11.247,11.247 0 0 0 -10.9,6.172 17.35,17.35 0 0 0 3.086,18.722 16.455,16.455 0 0 0 2.537,2.057 15.641,15.641 0 0 1 -2.4,2.743 c -2.194,1.577 -4.457,2.881 -6.858,4.321 -2.401,1.44 -4.869,2.949 -7.27,4.526 a 3.293,3.293 0 0 0 -1.165,1.783 c -3.155,10.424 -6.241,20.574 -9.4,31.34 z"
         id="path174"
         inkscape:connector-curvature="0" />
    </g>
    <g
       id="g182"
       style="fill:#161616">
      <path
         transform="matrix(0.306,0,0,0.306,-0.992,333.825)"
         d="m 135.092,245.417 c -5.783,-0.677 -6.461,-7.711 -4.272,-12.869 a 17.607,17.607 0 0 1 6.3,-7.138 8.078,8.078 0 0 0 0.469,3.387 c 0.677,2.24 3.178,2.761 3.96,6.878 0.782,4.117 -0.882,10.368 -6.457,9.742 z"
         id="path178"
         inkscape:connector-curvature="0" />
      <path
         transform="matrix(0.306,0,0,0.306,-30.113,328.363)"
         d="m 227.5,226.693 c -3.23,-0.782 -46.528,14.12 -46.528,14.12 l -3.856,-4.325 h -16.937 v -6.982 h 6.982 v -7.451 H 146.32 v 7.451 h 6.513 v 6.982 H 139.6 v -4.9 l -27.772,-10.418 -4.585,17.142 c -0.365,1.355 -0.417,4.9 2.4,5.94 2.817,1.04 13.234,4.846 17.454,6.409 a 6.669,6.669 0 0 1 4.325,5.888 v 10.42 a 5.836,5.836 0 0 0 6.357,5.732 h 50.431 c 4.168,0 8.545,-5.21 8.545,-5.21 l 22.039,-29.646 a 6.721,6.721 0 0 1 5.888,-1.667 12.032,12.032 0 0 1 5.731,3.543 l 5.21,-5.575 c 0,0 -4.845,-6.672 -8.123,-7.453 z m -96.338,18.132 -16.1,-6.1 a 1.615,1.615 0 0 1 -0.781,-1.876 l 1.355,-5.679 a 1.2,1.2 0 0 1 1.511,-0.469 l 14.016,5.21 v 8.91 z"
         id="path180"
         inkscape:connector-curvature="0" />
    </g>
    <g
       id="g188"
       style="fill:#fb9900">
      <path
         transform="matrix(0.306,0,0,0.306,41.342,333.825)"
         d="m 135.092,245.417 c -5.783,-0.677 -6.461,-7.711 -4.272,-12.869 a 17.607,17.607 0 0 1 6.3,-7.138 8.078,8.078 0 0 0 0.469,3.387 c 0.677,2.24 3.178,2.761 3.96,6.878 0.782,4.117 -0.882,10.368 -6.457,9.742 z"
         id="path184"
         inkscape:connector-curvature="0" />
      <path
         transform="matrix(0.306,0,0,0.306,12.221,328.363)"
         d="m 227.5,226.693 c -3.23,-0.782 -46.528,14.12 -46.528,14.12 l -3.856,-4.325 h -16.937 v -6.982 h 6.982 v -7.451 H 146.32 v 7.451 h 6.513 v 6.982 H 139.6 v -4.9 l -27.772,-10.418 -4.585,17.142 c -0.365,1.355 -0.417,4.9 2.4,5.94 2.817,1.04 13.234,4.846 17.454,6.409 a 6.669,6.669 0 0 1 4.325,5.888 v 10.42 a 5.836,5.836 0 0 0 6.357,5.732 h 50.431 c 4.168,0 8.545,-5.21 8.545,-5.21 l 22.039,-29.646 a 6.721,6.721 0 0 1 5.888,-1.667 12.032,12.032 0 0 1 5.731,3.543 l 5.21,-5.575 c 0,0 -4.845,-6.672 -8.123,-7.453 z m -96.338,18.132 -16.1,-6.1 a 1.615,1.615 0 0 1 -0.781,-1.876 l 1.355,-5.679 a 1.2,1.2 0 0 1 1.511,-0.469 l 14.016,5.21 v 8.91 z"
         id="path186"
         inkscape:connector-curvature="0" />
    </g>
    <g
       id="g194"
       style="fill:#ed1c24">
      <path
         transform="matrix(0.306,0,0,0.306,83.675,333.825)"
         d="m 135.092,245.417 c -5.783,-0.677 -6.461,-7.711 -4.272,-12.869 a 17.607,17.607 0 0 1 6.3,-7.138 8.078,8.078 0 0 0 0.469,3.387 c 0.677,2.24 3.178,2.761 3.96,6.878 0.782,4.117 -0.882,10.368 -6.457,9.742 z"
         id="path190"
         inkscape:connector-curvature="0" />
      <path
         transform="matrix(0.306,0,0,0.306,54.554,328.363)"
         d="m 227.5,226.693 c -3.23,-0.782 -46.528,14.12 -46.528,14.12 l -3.856,-4.325 h -16.937 v -6.982 h 6.982 v -7.451 H 146.32 v 7.451 h 6.513 v 6.982 H 139.6 v -4.9 l -27.772,-10.418 -4.585,17.142 c -0.365,1.355 -0.417,4.9 2.4,5.94 2.817,1.04 13.234,4.846 17.454,6.409 a 6.669,6.669 0 0 1 4.325,5.888 v 10.42 a 5.836,5.836 0 0 0 6.357,5.732 h 50.431 c 4.168,0 8.545,-5.21 8.545,-5.21 l 22.039,-29.646 a 6.721,6.721 0 0 1 5.888,-1.667 12.032,12.032 0 0 1 5.731,3.543 l 5.21,-5.575 c 0,0 -4.845,-6.672 -8.123,-7.453 z m -96.338,18.132 -16.1,-6.1 a 1.615,1.615 0 0 1 -0.781,-1.876 l 1.355,-5.679 a 1.2,1.2 0 0 1 1.511,-0.469 l 14.016,5.21 v 8.91 z"
         id="path192"
         inkscape:connector-curvature="0" />
    </g>
    <g
       id="g200"
       style="fill:#161616">
      <path
         transform="matrix(0.323,0,0,0.323,-101.943,379.653)"
         d="m 410.362,260.768 c -1.414,0 -1.414,0 -2.057,-1.093 a 9.773,9.773 0 0 0 -9.837,-5.143 14.144,14.144 0 0 0 -10.415,3.986 7.328,7.328 0 0 1 -5.915,2.25 c -2.636,0 -2.893,-0.386 -3.536,-1.479 a 8.936,8.936 0 0 0 -8.937,-4.758 10.607,10.607 0 0 0 -9.386,4.372 c -1.029,1.286 -1.543,1.864 -4.243,1.864 a 7.843,7.843 0 0 1 -6.429,-2.443 12.857,12.857 0 0 0 -9.258,-3.793 v 7.136 a 6.43,6.43 0 0 1 4.629,2.057 14.916,14.916 0 0 0 10.8,4.179 11.187,11.187 0 0 0 9.772,-4.436 3.728,3.728 0 0 1 3.857,-1.8 c 2.057,0 2.186,0 2.829,1.286 a 9.579,9.579 0 0 0 9.644,4.951 14.465,14.465 0 0 0 10.543,-3.986 7.137,7.137 0 0 1 5.787,-2.25 c 2.7,0 3.022,0.45 3.729,1.672 a 8.229,8.229 0 0 0 8.161,4.56 22.694,22.694 0 0 0 10.736,-3.279 19.933,19.933 0 0 1 9.451,-2.957 v -7.136 a 26.551,26.551 0 0 0 -12.858,3.729 16.838,16.838 0 0 1 -7.067,2.511 z"
         id="path196"
         inkscape:connector-curvature="0" />
      <path
         transform="matrix(0.323,0,0,0.323,-101.943,349.792)"
         d="m 417.884,333.929 a 16.842,16.842 0 0 1 -7.522,2.507 c -1.415,0 -1.415,0 -2.058,-1.093 a 9.773,9.773 0 0 0 -9.837,-5.143 16.644,16.644 0 0 0 -4.243,0.514 11.508,11.508 0 0 0 -4.115,-13.951 V 295.1 h 24.044 v -7.522 H 390.11 v -10.031 h 24.044 v -7.458 H 390.11 V 260 h 24.044 v -7.522 H 390.11 V 237.43 h -12.857 v 79.334 a 11.379,11.379 0 0 0 -5.079,9.515 11.959,11.959 0 0 0 0.836,4.308 12.851,12.851 0 0 0 -3.343,-0.386 10.608,10.608 0 0 0 -9.386,4.372 c -1.029,1.285 -1.543,1.864 -4.243,1.864 a 7.844,7.844 0 0 1 -6.429,-2.443 12.859,12.859 0 0 0 -9.258,-3.793 v 7.329 a 6.044,6.044 0 0 1 4.629,2.121 15.172,15.172 0 0 0 10.8,4.115 11.187,11.187 0 0 0 9.772,-4.436 3.728,3.728 0 0 1 3.857,-1.8 c 2.057,0 2.186,0 2.829,1.286 a 9.579,9.579 0 0 0 9.644,4.95 14.465,14.465 0 0 0 10.544,-3.986 7.138,7.138 0 0 1 5.786,-2.25 c 2.7,0 3.022,0.45 3.729,1.671 a 8.229,8.229 0 0 0 8.165,4.565 22.7,22.7 0 0 0 10.736,-3.279 19.932,19.932 0 0 1 9.451,-2.958 v -7.136 a 26.553,26.553 0 0 0 -12.408,3.536 z"
         id="path198"
         inkscape:connector-curvature="0" />
    </g>
    <g
       id="g206"
       style="fill:#fb9900">
      <path
         transform="matrix(0.323,0,0,0.323,-59.609,379.653)"
         d="m 410.362,260.768 c -1.414,0 -1.414,0 -2.057,-1.093 a 9.773,9.773 0 0 0 -9.837,-5.143 14.144,14.144 0 0 0 -10.415,3.986 7.328,7.328 0 0 1 -5.915,2.25 c -2.636,0 -2.893,-0.386 -3.536,-1.479 a 8.936,8.936 0 0 0 -8.937,-4.758 10.607,10.607 0 0 0 -9.386,4.372 c -1.029,1.286 -1.543,1.864 -4.243,1.864 a 7.843,7.843 0 0 1 -6.429,-2.443 12.857,12.857 0 0 0 -9.258,-3.793 v 7.136 a 6.43,6.43 0 0 1 4.629,2.057 14.916,14.916 0 0 0 10.8,4.179 11.187,11.187 0 0 0 9.772,-4.436 3.728,3.728 0 0 1 3.857,-1.8 c 2.057,0 2.186,0 2.829,1.286 a 9.579,9.579 0 0 0 9.644,4.951 14.465,14.465 0 0 0 10.543,-3.986 7.137,7.137 0 0 1 5.787,-2.25 c 2.7,0 3.022,0.45 3.729,1.672 a 8.229,8.229 0 0 0 8.161,4.56 22.694,22.694 0 0 0 10.736,-3.279 19.933,19.933 0 0 1 9.451,-2.957 v -7.136 a 26.551,26.551 0 0 0 -12.858,3.729 16.838,16.838 0 0 1 -7.067,2.511 z"
         id="path202"
         inkscape:connector-curvature="0" />
      <path
         transform="matrix(0.323,0,0,0.323,-59.609,349.792)"
         d="m 417.884,333.929 a 16.842,16.842 0 0 1 -7.522,2.507 c -1.415,0 -1.415,0 -2.058,-1.093 a 9.773,9.773 0 0 0 -9.837,-5.143 16.644,16.644 0 0 0 -4.243,0.514 11.508,11.508 0 0 0 -4.115,-13.951 V 295.1 h 24.044 v -7.522 H 390.11 v -10.031 h 24.044 v -7.458 H 390.11 V 260 h 24.044 v -7.522 H 390.11 V 237.43 h -12.857 v 79.334 a 11.379,11.379 0 0 0 -5.079,9.515 11.959,11.959 0 0 0 0.836,4.308 12.851,12.851 0 0 0 -3.343,-0.386 10.608,10.608 0 0 0 -9.386,4.372 c -1.029,1.285 -1.543,1.864 -4.243,1.864 a 7.844,7.844 0 0 1 -6.429,-2.443 12.859,12.859 0 0 0 -9.258,-3.793 v 7.329 a 6.044,6.044 0 0 1 4.629,2.121 15.172,15.172 0 0 0 10.8,4.115 11.187,11.187 0 0 0 9.772,-4.436 3.728,3.728 0 0 1 3.857,-1.8 c 2.057,0 2.186,0 2.829,1.286 a 9.579,9.579 0 0 0 9.644,4.95 14.465,14.465 0 0 0 10.544,-3.986 7.138,7.138 0 0 1 5.786,-2.25 c 2.7,0 3.022,0.45 3.729,1.671 a 8.229,8.229 0 0 0 8.165,4.565 22.7,22.7 0 0 0 10.736,-3.279 19.932,19.932 0 0 1 9.451,-2.958 v -7.136 a 26.553,26.553 0 0 0 -12.408,3.536 z"
         id="path204"
         inkscape:connector-curvature="0" />
    </g>
    <g
       id="g212"
       style="fill:#ed1c24">
      <path
         transform="matrix(0.323,0,0,0.323,-17.276,379.653)"
         d="m 410.362,260.768 c -1.414,0 -1.414,0 -2.057,-1.093 a 9.773,9.773 0 0 0 -9.837,-5.143 14.144,14.144 0 0 0 -10.415,3.986 7.328,7.328 0 0 1 -5.915,2.25 c -2.636,0 -2.893,-0.386 -3.536,-1.479 a 8.936,8.936 0 0 0 -8.937,-4.758 10.607,10.607 0 0 0 -9.386,4.372 c -1.029,1.286 -1.543,1.864 -4.243,1.864 a 7.843,7.843 0 0 1 -6.429,-2.443 12.857,12.857 0 0 0 -9.258,-3.793 v 7.136 a 6.43,6.43 0 0 1 4.629,2.057 14.916,14.916 0 0 0 10.8,4.179 11.187,11.187 0 0 0 9.772,-4.436 3.728,3.728 0 0 1 3.857,-1.8 c 2.057,0 2.186,0 2.829,1.286 a 9.579,9.579 0 0 0 9.644,4.951 14.465,14.465 0 0 0 10.543,-3.986 7.137,7.137 0 0 1 5.787,-2.25 c 2.7,0 3.022,0.45 3.729,1.672 a 8.229,8.229 0 0 0 8.161,4.56 22.694,22.694 0 0 0 10.736,-3.279 19.933,19.933 0 0 1 9.451,-2.957 v -7.136 a 26.551,26.551 0 0 0 -12.858,3.729 16.838,16.838 0 0 1 -7.067,2.511 z"
         id="path208"
         inkscape:connector-curvature="0" />
      <path
         transform="matrix(0.323,0,0,0.323,-17.276,349.792)"
         d="m 417.884,333.929 a 16.842,16.842 0 0 1 -7.522,2.507 c -1.415,0 -1.415,0 -2.058,-1.093 a 9.773,9.773 0 0 0 -9.837,-5.143 16.644,16.644 0 0 0 -4.243,0.514 11.508,11.508 0 0 0 -4.115,-13.951 V 295.1 h 24.044 v -7.522 H 390.11 v -10.031 h 24.044 v -7.458 H 390.11 V 260 h 24.044 v -7.522 H 390.11 V 237.43 h -12.857 v 79.334 a 11.379,11.379 0 0 0 -5.079,9.515 11.959,11.959 0 0 0 0.836,4.308 12.851,12.851 0 0 0 -3.343,-0.386 10.608,10.608 0 0 0 -9.386,4.372 c -1.029,1.285 -1.543,1.864 -4.243,1.864 a 7.844,7.844 0 0 1 -6.429,-2.443 12.859,12.859 0 0 0 -9.258,-3.793 v 7.329 a 6.044,6.044 0 0 1 4.629,2.121 15.172,15.172 0 0 0 10.8,4.115 11.187,11.187 0 0 0 9.772,-4.436 3.728,3.728 0 0 1 3.857,-1.8 c 2.057,0 2.186,0 2.829,1.286 a 9.579,9.579 0 0 0 9.644,4.95 14.465,14.465 0 0 0 10.544,-3.986 7.138,7.138 0 0 1 5.786,-2.25 c 2.7,0 3.022,0.45 3.729,1.671 a 8.229,8.229 0 0 0 8.165,4.565 22.7,22.7 0 0 0 10.736,-3.279 19.932,19.932 0 0 1 9.451,-2.958 v -7.136 a 26.553,26.553 0 0 0 -12.408,3.536 z"
         id="path210"
         inkscape:connector-curvature="0" />
    </g>
    <path
       d="m 41.774,103.1 a 1.603,1.603 0 0 0 -1.484,-1.108 h -2.81 c -1.009,-1.484 -3.502,-4.828 -5.422,-4.828 h -9.893 c -0.297,0 -0.633,0 -5.936,4.115 a 50.543,50.543 0 0 0 -6.352,-4.709 8.173,8.173 0 0 0 -4.116,0 l 0.276,1.226 a 7.085,7.085 0 0 1 3.364,0 44.693,44.693 0 0 1 5.797,4.314 38.625,38.625 0 0 0 -8.726,1.167 c -2.533,1.029 -4.333,4.67 -3.7,6.45 0.198,0.554 0.337,0.97 6.332,1.207 a 3.679,3.679 0 0 0 7.242,0.158 c 4.887,0 10.447,0 15.196,-0.139 a 3.679,3.679 0 0 0 7.301,-0.337 c 2.275,-0.178 2.553,-0.356 2.79,-0.633 a 9.756,9.756 0 0 0 0.138,-6.886 z m -1.345,5.738 a 20.362,20.362 0 0 1 -2.553,0.276 h -0.871 l 0.158,0.871 a 2.155,2.155 0 0 1 0,0.356 2.0975,2.0975 0 1 1 -4.195,0 v -1.068 h -0.889 c -5.125,0.158 -11.338,0.218 -16.641,0.158 h -0.733 v 0.871 a 2.0975,2.0975 0 1 1 -4.195,0 v -0.97 H 9.699 a 34.725,34.725 0 0 1 -5.679,-0.455 5.52,5.52 0 0 1 2.849,-4.195 39.831,39.831 0 0 1 8.449,-1.068 h 0.257 l 0.198,-0.158 c 2.711,-2.097 5.758,-4.412 6.469,-4.808 h 9.795 c 0.851,0 2.909,2.315 4.333,4.472 l 0.237,0.356 h 3.601 a 9.162,9.162 0 0 1 0.219,5.363 z"
       transform="translate(0,382.979)"
       id="path214"
       inkscape:connector-curvature="0"
       style="fill:#161616" />
    <path
       d="m 126.441,103.1 a 1.603,1.603 0 0 0 -1.484,-1.108 h -2.81 c -1.009,-1.484 -3.502,-4.828 -5.422,-4.828 h -9.893 c -0.297,0 -0.633,0 -5.936,4.115 a 50.543,50.543 0 0 0 -6.352,-4.709 8.173,8.173 0 0 0 -4.116,0 l 0.276,1.226 a 7.085,7.085 0 0 1 3.364,0 44.693,44.693 0 0 1 5.797,4.314 38.625,38.625 0 0 0 -8.726,1.167 c -2.533,1.029 -4.333,4.67 -3.7,6.45 0.198,0.554 0.337,0.97 6.332,1.207 a 3.679,3.679 0 0 0 7.242,0.158 c 4.887,0 10.447,0 15.196,-0.139 a 3.679,3.679 0 0 0 7.301,-0.337 c 2.275,-0.178 2.553,-0.356 2.79,-0.633 a 9.756,9.756 0 0 0 0.138,-6.886 z m -1.345,5.738 a 20.362,20.362 0 0 1 -2.553,0.276 h -0.871 l 0.158,0.871 a 2.155,2.155 0 0 1 0,0.356 2.0975,2.0975 0 1 1 -4.195,0 v -1.068 h -0.889 c -5.125,0.158 -11.338,0.218 -16.641,0.158 h -0.733 v 0.871 a 2.0975,2.0975 0 1 1 -4.195,0 v -0.97 h -0.811 a 34.725,34.725 0 0 1 -5.679,-0.455 5.52,5.52 0 0 1 2.849,-4.195 39.831,39.831 0 0 1 8.449,-1.068 h 0.257 l 0.198,-0.158 c 2.711,-2.097 5.758,-4.412 6.469,-4.808 h 9.795 c 0.851,0 2.909,2.315 4.333,4.472 l 0.237,0.356 h 3.601 a 9.162,9.162 0 0 1 0.219,5.363 z"
       transform="translate(0,382.979)"
       id="path216"
       inkscape:connector-curvature="0"
       style="fill:#fb9900" />
    <g
       id="g230"
       style="fill:#161616">
      <path
         transform="matrix(0.325,0,0,0.325,-83.926,441.49)"
         d="m 354.531,223.865 h -5.654 c 0,0 -3.1,-11.375 -4.173,-11.375 H 309.5 c -1.077,0 -4.173,11.375 -4.173,11.375 h -5.654 c 0,0 -2.154,0.808 -1.279,2.692 0.875,1.884 3.567,1.615 5.317,1.683 v 0.673 l -3.635,2.154 v 21.942 h 11.105 v -3.433 h 32.24 v 3.433 h 11.105 v -21.943 l -3.635,-2.154 v -0.673 c 1.75,0 4.712,-0.337 5.317,-1.683 z m -27.393,3.835 h -20.73 a 105.864,105.864 0 0 1 4.308,-12.788 h 32.778 A 105.833,105.833 0 0 1 347.8,227.7 Z"
         id="path218"
         inkscape:connector-curvature="0" />
      <path
         transform="matrix(0.325,0,0,0.325,-83.476,453.447)"
         d="m 298.631,218.91 h 10.836 a 23.152,23.152 0 0 1 11.038,14.471 c 2.154,9.826 -16.153,22.547 -16.153,22.547 a 72.291,72.291 0 0 0 8.009,-17.971 c 0,-4.308 -12.922,-12.452 -13.461,-14 a 10.1,10.1 0 0 1 -0.269,-5.047 z"
         id="path220"
         inkscape:connector-curvature="0" />
      <path
         transform="matrix(0.325,0,0,0.325,-71.5,453.447)"
         d="M 305.061,218.91 H 315.9 a 23.155,23.155 0 0 1 11.038,14.471 c 2.154,9.826 -16.153,22.547 -16.153,22.547 a 72.289,72.289 0 0 0 8.009,-17.971 c 0,-4.308 -12.923,-12.452 -13.461,-14 a 10.1,10.1 0 0 1 -0.272,-5.047 z"
         id="path222"
         inkscape:connector-curvature="0" />
      <path
         transform="matrix(0.325,0,0,0.325,-87.724,465.05)"
         d="m 330.077,242.91 a 26.3,26.3 0 0 1 -1.279,8.211 16.229,16.229 0 0 1 -3.231,5.923 15.277,15.277 0 0 1 -5.384,3.769 21.133,21.133 0 0 1 -7.471,1.279 21.682,21.682 0 0 1 -7.269,-1.144 12.049,12.049 0 0 1 -5.115,-3.3 13.459,13.459 0 0 1 -3.1,-5.654 26.925,26.925 0 0 1 -1.077,-8.144 25.373,25.373 0 0 1 1.144,-7.808 16.494,16.494 0 0 1 3.23,-5.855 15.278,15.278 0 0 1 5.384,-3.769 21.137,21.137 0 0 1 7.471,-1.279 22.759,22.759 0 0 1 7.134,1.077 12.519,12.519 0 0 1 5.183,3.3 14.4,14.4 0 0 1 3.163,5.653 28.114,28.114 0 0 1 1.212,7.74 z m -7.606,0.4 A 29.386,29.386 0 0 0 322,238.2 a 10.772,10.772 0 0 0 -1.481,-3.9 7.329,7.329 0 0 0 -2.827,-2.558 9.7,9.7 0 0 0 -4.442,-0.875 9.017,9.017 0 0 0 -4.443,1.009 8.345,8.345 0 0 0 -2.894,2.625 10.9,10.9 0 0 0 -1.548,3.971 21.563,21.563 0 0 0 -0.471,4.711 24.977,24.977 0 0 0 0.471,5.25 11.1,11.1 0 0 0 1.481,3.971 6.729,6.729 0 0 0 2.827,2.558 10.428,10.428 0 0 0 4.442,0.875 9.013,9.013 0 0 0 4.442,-1.01 7.944,7.944 0 0 0 2.894,-2.692 12.243,12.243 0 0 0 1.549,-3.976 28.069,28.069 0 0 0 0.471,-4.845 z"
         id="path224"
         inkscape:connector-curvature="0" />
      <path
         transform="matrix(0.325,0,0,0.325,-76.413,465.054)"
         d="m 321.318,228.494 a 9.01,9.01 0 0 1 0,1.414 q 0.022,0.437 0,0.875 v 0.471 a 0.605,0.605 0 0 1 -0.471,0 H 309.2 v 9.557 h 11.375 a 0.878,0.878 0 0 1 0.336,0.471 1.683,1.683 0 0 1 0,0.875 7.772,7.772 0 0 1 0,1.414 6.74,6.74 0 0 1 0,1.346 2.155,2.155 0 0 1 0,0.942 0.875,0.875 0 0 1 -0.336,0.471 0.472,0.472 0 0 1 -0.4,0 H 309.2 v 13.461 a 0.947,0.947 0 0 1 0,0.471 1.347,1.347 0 0 1 -0.606,0.4 4.373,4.373 0 0 1 -1.144,0 h -3.5 a 3.845,3.845 0 0 1 -1.077,0 c 0,0 -0.538,0 -0.606,-0.4 a 0.606,0.606 0 0 1 0,-0.471 v -32.307 a 2.219,2.219 0 0 1 0.606,-1.75 2.086,2.086 0 0 1 1.548,-0.539 h 16.759 a 0.539,0.539 0 0 1 0.471,0 v 1.414 a 9.04,9.04 0 0 1 -0.333,1.885 z"
         id="path226"
         inkscape:connector-curvature="0" />
      <path
         transform="matrix(0.325,0,0,0.325,-69.442,465.056)"
         d="m 325.783,228.487 v 1.413 a 2.69,2.69 0 0 1 0,0.875 1.213,1.213 0 0 1 -0.337,0.471 H 312.928 V 240.8 H 324.3 l 0.336,0.471 c 0.015,0.291 0.015,0.584 0,0.875 a 8.633,8.633 0 0 1 0,1.413 7.724,7.724 0 0 1 0,1.346 v 0.942 c 0,0 0,0.4 -0.336,0.471 a 0.538,0.538 0 0 1 -0.471,0 h -10.9 v 13.461 a 0.607,0.607 0 0 1 0,0.471 l -0.606,0.4 a 3.832,3.832 0 0 1 -1.077,0 h -3.5 a 4.386,4.386 0 0 1 -1.144,0 1.346,1.346 0 0 1 -0.606,-0.4 0.947,0.947 0 0 1 0,-0.471 v -32.302 a 2.222,2.222 0 0 1 0.606,-1.75 2.087,2.087 0 0 1 1.548,-0.538 h 16.759 a 0.471,0.471 0 0 1 0.4,0 0.875,0.875 0 0 1 0.336,0.471 3.173,3.173 0 0 1 0,0.942 c 0.071,0.875 0.138,1.346 0.138,1.885 z"
         id="path228"
         inkscape:connector-curvature="0" />
    </g>
    <g
       id="g244"
       style="fill:#ed1c24">
      <path
         transform="matrix(0.325,0,0,0.325,0.74,441.49)"
         d="m 354.531,223.865 h -5.654 c 0,0 -3.1,-11.375 -4.173,-11.375 H 309.5 c -1.077,0 -4.173,11.375 -4.173,11.375 h -5.654 c 0,0 -2.154,0.808 -1.279,2.692 0.875,1.884 3.567,1.615 5.317,1.683 v 0.673 l -3.635,2.154 v 21.942 h 11.105 v -3.433 h 32.24 v 3.433 h 11.105 v -21.943 l -3.635,-2.154 v -0.673 c 1.75,0 4.712,-0.337 5.317,-1.683 z m -27.393,3.835 h -20.73 a 105.864,105.864 0 0 1 4.308,-12.788 h 32.778 A 105.833,105.833 0 0 1 347.8,227.7 Z"
         id="path232"
         inkscape:connector-curvature="0" />
      <path
         transform="matrix(0.325,0,0,0.325,1.19,453.447)"
         d="m 298.631,218.91 h 10.836 a 23.152,23.152 0 0 1 11.038,14.471 c 2.154,9.826 -16.153,22.547 -16.153,22.547 a 72.291,72.291 0 0 0 8.009,-17.971 c 0,-4.308 -12.922,-12.452 -13.461,-14 a 10.1,10.1 0 0 1 -0.269,-5.047 z"
         id="path234"
         inkscape:connector-curvature="0" />
      <path
         transform="matrix(0.325,0,0,0.325,13.166,453.447)"
         d="M 305.061,218.91 H 315.9 a 23.155,23.155 0 0 1 11.038,14.471 c 2.154,9.826 -16.153,22.547 -16.153,22.547 a 72.289,72.289 0 0 0 8.009,-17.971 c 0,-4.308 -12.923,-12.452 -13.461,-14 a 10.1,10.1 0 0 1 -0.272,-5.047 z"
         id="path236"
         inkscape:connector-curvature="0" />
      <path
         transform="matrix(0.325,0,0,0.325,-3.058,465.05)"
         d="m 330.077,242.91 a 26.3,26.3 0 0 1 -1.279,8.211 16.229,16.229 0 0 1 -3.231,5.923 15.277,15.277 0 0 1 -5.384,3.769 21.133,21.133 0 0 1 -7.471,1.279 21.682,21.682 0 0 1 -7.269,-1.144 12.049,12.049 0 0 1 -5.115,-3.3 13.459,13.459 0 0 1 -3.1,-5.654 26.925,26.925 0 0 1 -1.077,-8.144 25.373,25.373 0 0 1 1.144,-7.808 16.494,16.494 0 0 1 3.23,-5.855 15.278,15.278 0 0 1 5.384,-3.769 21.137,21.137 0 0 1 7.471,-1.279 22.759,22.759 0 0 1 7.134,1.077 12.519,12.519 0 0 1 5.183,3.3 14.4,14.4 0 0 1 3.163,5.653 28.114,28.114 0 0 1 1.212,7.74 z m -7.606,0.4 A 29.386,29.386 0 0 0 322,238.2 a 10.772,10.772 0 0 0 -1.481,-3.9 7.329,7.329 0 0 0 -2.827,-2.558 9.7,9.7 0 0 0 -4.442,-0.875 9.017,9.017 0 0 0 -4.443,1.009 8.345,8.345 0 0 0 -2.894,2.625 10.9,10.9 0 0 0 -1.548,3.971 21.563,21.563 0 0 0 -0.471,4.711 24.977,24.977 0 0 0 0.471,5.25 11.1,11.1 0 0 0 1.481,3.971 6.729,6.729 0 0 0 2.827,2.558 10.428,10.428 0 0 0 4.442,0.875 9.013,9.013 0 0 0 4.442,-1.01 7.944,7.944 0 0 0 2.894,-2.692 12.243,12.243 0 0 0 1.549,-3.976 28.069,28.069 0 0 0 0.471,-4.845 z"
         id="path238"
         inkscape:connector-curvature="0" />
      <path
         transform="matrix(0.325,0,0,0.325,8.253,465.054)"
         d="m 321.318,228.494 a 9.01,9.01 0 0 1 0,1.414 q 0.022,0.437 0,0.875 v 0.471 a 0.605,0.605 0 0 1 -0.471,0 H 309.2 v 9.557 h 11.375 a 0.878,0.878 0 0 1 0.336,0.471 1.683,1.683 0 0 1 0,0.875 7.772,7.772 0 0 1 0,1.414 6.74,6.74 0 0 1 0,1.346 2.155,2.155 0 0 1 0,0.942 0.875,0.875 0 0 1 -0.336,0.471 0.472,0.472 0 0 1 -0.4,0 H 309.2 v 13.461 a 0.947,0.947 0 0 1 0,0.471 1.347,1.347 0 0 1 -0.606,0.4 4.373,4.373 0 0 1 -1.144,0 h -3.5 a 3.845,3.845 0 0 1 -1.077,0 c 0,0 -0.538,0 -0.606,-0.4 a 0.606,0.606 0 0 1 0,-0.471 v -32.307 a 2.219,2.219 0 0 1 0.606,-1.75 2.086,2.086 0 0 1 1.548,-0.539 h 16.759 a 0.539,0.539 0 0 1 0.471,0 v 1.414 a 9.04,9.04 0 0 1 -0.333,1.885 z"
         id="path240"
         inkscape:connector-curvature="0" />
      <path
         transform="matrix(0.325,0,0,0.325,15.224,465.056)"
         d="m 325.783,228.487 v 1.413 a 2.69,2.69 0 0 1 0,0.875 1.213,1.213 0 0 1 -0.337,0.471 H 312.928 V 240.8 H 324.3 l 0.336,0.471 c 0.015,0.291 0.015,0.584 0,0.875 a 8.633,8.633 0 0 1 0,1.413 7.724,7.724 0 0 1 0,1.346 v 0.942 c 0,0 0,0.4 -0.336,0.471 a 0.538,0.538 0 0 1 -0.471,0 h -10.9 v 13.461 a 0.607,0.607 0 0 1 0,0.471 l -0.606,0.4 a 3.832,3.832 0 0 1 -1.077,0 h -3.5 a 4.386,4.386 0 0 1 -1.144,0 1.346,1.346 0 0 1 -0.606,-0.4 0.947,0.947 0 0 1 0,-0.471 v -32.302 a 2.222,2.222 0 0 1 0.606,-1.75 2.087,2.087 0 0 1 1.548,-0.538 h 16.759 a 0.471,0.471 0 0 1 0.4,0 0.875,0.875 0 0 1 0.336,0.471 3.173,3.173 0 0 1 0,0.942 c 0.071,0.875 0.138,1.346 0.138,1.885 z"
         id="path242"
         inkscape:connector-curvature="0" />
    </g>
    <path
       d="m 36.395,183.352 v 3.946 h -1.678 v -4.389 h -3.135 l -3.246,-3.227 h -5.33 v -0.129 h 3.246 c 0.183,-0.111 1.162,-0.664 0.959,-1.494 -0.203,-0.83 -1.143,-1.457 -6.861,-1.457 -6.123,0 -7.174,0.775 -7.377,1.531 a 1.18,1.18 0 0 0 0.609,1.291 h 3.209 v 0.24 H 12.365 L 9.783,182.91 H 5.985 v 6.141 H 4.14 a 34.503,34.503 0 0 0 -0.406,-6.344 c -0.498,0 -1.088,2.582 -1.088,4.831 0,2.249 0.498,2.029 0.498,2.988 0,0.959 -0.498,0.406 -0.498,2.674 0,2.268 0.442,5.533 1.088,5.533 a 23.056,23.056 0 0 0 0.442,-6.4 H 6.02 v 6.363 h 6.916 l 5.182,4.389 h 16.598 v -5.532 h 1.678 v 4.371 h 5.938 v -18.571 z m -22.278,-4.923 c 0.221,-0.183 1.272,-0.719 6.344,-0.719 4.464,0 5.533,0.443 5.772,0.627 l -0.275,0.221 h -4.022 v 1.217 h -4.131 v -1.328 z m 26.668,21.965 h -2.692 v -4.391 H 33.17 v 5.533 H 18.676 l -5.182,-4.389 H 7.607 v -12.466 h 2.951 l 2.599,-3.246 h 14.514 l 3.229,3.246 h 2.195 v 4.316 h 4.999 v -3.966 h 2.691 z"
       transform="translate(0,382.979)"
       id="path246"
       inkscape:connector-curvature="0"
       style="fill:#161616" />
    <path
       d="m 78.729,183.352 v 3.946 h -1.678 v -4.389 h -3.135 l -3.246,-3.227 h -5.33 v -0.129 h 3.246 c 0.183,-0.111 1.162,-0.664 0.959,-1.494 -0.203,-0.83 -1.143,-1.457 -6.861,-1.457 -6.123,0 -7.174,0.775 -7.377,1.531 a 1.18,1.18 0 0 0 0.609,1.291 h 3.209 v 0.24 h -4.426 l -2.582,3.246 h -3.798 v 6.141 h -1.845 a 34.503,34.503 0 0 0 -0.406,-6.344 c -0.498,0 -1.088,2.582 -1.088,4.831 0,2.249 0.498,2.029 0.498,2.988 0,0.959 -0.498,0.406 -0.498,2.674 0,2.268 0.442,5.533 1.088,5.533 a 23.056,23.056 0 0 0 0.442,-6.4 h 1.844 v 6.363 h 6.916 l 5.182,4.389 H 77.05 v -5.532 h 1.678 v 4.371 h 5.938 v -18.571 z m -22.278,-4.923 c 0.221,-0.183 1.272,-0.719 6.344,-0.719 4.464,0 5.533,0.443 5.772,0.627 l -0.275,0.221 H 64.27 v 1.217 h -4.131 v -1.328 z m 26.668,21.965 h -2.692 v -4.391 h -4.923 v 5.533 H 61.01 l -5.182,-4.389 h -5.887 v -12.466 h 2.951 l 2.599,-3.246 h 14.514 l 3.229,3.246 h 2.195 v 4.316 h 4.999 v -3.966 h 2.691 z"
       transform="translate(0,382.979)"
       id="path248"
       inkscape:connector-curvature="0"
       style="fill:#fb9900" />
    <path
       d="m 121.062,183.352 v 3.946 h -1.678 v -4.389 h -3.135 l -3.246,-3.227 h -5.33 v -0.129 h 3.246 c 0.183,-0.111 1.162,-0.664 0.959,-1.494 -0.203,-0.83 -1.143,-1.457 -6.861,-1.457 -6.123,0 -7.174,0.775 -7.377,1.531 a 1.18,1.18 0 0 0 0.609,1.291 h 3.209 v 0.24 h -4.426 l -2.582,3.246 h -3.798 v 6.141 h -1.845 a 34.503,34.503 0 0 0 -0.406,-6.344 c -0.498,0 -1.088,2.582 -1.088,4.831 0,2.249 0.498,2.029 0.498,2.988 0,0.959 -0.498,0.406 -0.498,2.674 0,2.268 0.442,5.533 1.088,5.533 a 23.056,23.056 0 0 0 0.442,-6.4 h 1.844 v 6.363 h 6.916 l 5.182,4.389 h 16.598 v -5.532 h 1.678 v 4.371 h 5.938 v -18.571 z m -22.278,-4.923 c 0.221,-0.183 1.272,-0.719 6.344,-0.719 4.464,0 5.533,0.443 5.772,0.627 l -0.275,0.221 h -4.022 v 1.217 h -4.131 v -1.328 z m 26.668,21.965 h -2.692 v -4.391 h -4.923 v 5.533 h -14.494 l -5.182,-4.389 h -5.887 v -12.466 h 2.951 l 2.599,-3.246 h 14.514 l 3.229,3.246 h 2.195 v 4.316 h 4.999 v -3.966 h 2.691 z"
       transform="translate(0,382.979)"
       id="path250"
       inkscape:connector-curvature="0"
       style="fill:#ed1c24" />
    <g
       id="g264"
       style="fill:#161616">
      <path
         transform="matrix(0.307,0,0,0.307,-43.812,529.055)"
         d="m 215.692,326.924 a 47.072,47.072 0 1 1 47.072,-47.072 47.072,47.072 0 0 1 -47.072,47.072 z m 0,-84.819 a 37.747,37.747 0 1 0 37.747,37.747 37.747,37.747 0 0 0 -37.747,-37.752 z"
         id="path252"
         inkscape:connector-curvature="0" />
      <path
         transform="matrix(0.307,0,0,0.307,-21.642,530.061)"
         d="m 190.72,234.333 -0.843,-0.843 -5.617,5.617 0.9,0.9 a 50.948,50.948 0 0 1 0,73.023 l -0.9,0.843 5.617,5.617 0.843,-0.843 a 59.149,59.149 0 0 0 0,-84.258 z"
         id="path254"
         inkscape:connector-curvature="0" />
      <path
         transform="matrix(0.307,0,0,0.307,-48.176,530.103)"
         d="m 189.688,239.137 -5.617,-5.617 -0.9,0.843 a 59.149,59.149 0 0 0 0,84.258 l 0.9,0.843 5.617,-5.617 -0.9,-0.843 a 50.948,50.948 0 0 1 0,-73.023 z"
         id="path256"
         inkscape:connector-curvature="0" />
      <path
         d="m 19.56,618.298 h -1.466 l -0.586,-1.518 h -2.656 l -0.553,1.518 h -1.431 l 2.604,-6.656 h 1.414 z m -2.483,-2.638 -0.914,-2.466 -0.897,2.466 z"
         id="path258"
         inkscape:connector-curvature="0" />
      <path
         transform="matrix(0.307,0,0,0.307,-33.677,538.176)"
         d="m 175.77,239.3 h 8.65 a 22.482,22.482 0 0 1 3.876,0 5.168,5.168 0 0 1 2.247,0.843 5.954,5.954 0 0 1 1.685,1.857 4.722,4.722 0 0 1 0.674,2.528 5,5 0 0 1 -0.842,2.809 5.618,5.618 0 0 1 -2.247,1.91 5.26,5.26 0 0 1 4.157,5.224 6.4,6.4 0 0 1 -0.73,2.865 5.616,5.616 0 0 1 -1.854,2.247 6.686,6.686 0 0 1 -2.977,1.067 H 175.77 Z m 4.381,3.6 v 5 h 6.066 a 2.529,2.529 0 0 0 1.741,-0.786 2.134,2.134 0 0 0 0.674,-1.685 2.472,2.472 0 0 0 -0.562,-1.629 2.639,2.639 0 0 0 -1.685,-0.786 h -6.235 z m 0,8.65 v 5.617 h 4.049 a 29.035,29.035 0 0 0 3.033,0 2.808,2.808 0 0 0 1.573,-0.9 2.752,2.752 0 0 0 0.618,-1.854 2.694,2.694 0 0 0 -0.505,-1.629 2.528,2.528 0 0 0 -1.348,-1.011 17.753,17.753 0 0 0 -3.876,-0.281 z"
         id="path260"
         inkscape:connector-curvature="0" />
      <path
         transform="matrix(0.307,0,0,0.307,-28.432,538.064)"
         d="m 179.47,254.269 4.269,-0.393 a 4.886,4.886 0 0 0 1.517,3.146 4.774,4.774 0 0 0 3.2,1.011 4.83,4.83 0 0 0 3.2,-0.9 2.585,2.585 0 0 0 1.067,-2.078 2.023,2.023 0 0 0 -0.449,-1.292 3.427,3.427 0 0 0 -1.573,-0.955 l -3.539,-0.955 a 12.073,12.073 0 0 1 -4.719,-2.247 5.823,5.823 0 0 1 -1.067,-7.471 6.29,6.29 0 0 1 2.753,-2.191 10.724,10.724 0 0 1 4.269,-0.786 9.155,9.155 0 0 1 6.123,1.8 6.235,6.235 0 0 1 2.191,4.774 h -4.381 a 3.539,3.539 0 0 0 -1.236,-2.415 4.214,4.214 0 0 0 -2.752,-0.73 4.717,4.717 0 0 0 -2.977,0.786 1.516,1.516 0 0 0 -0.73,1.348 1.572,1.572 0 0 0 0.674,1.292 12.02,12.02 0 0 0 4.044,1.461 19.765,19.765 0 0 1 4.719,1.573 6.068,6.068 0 0 1 2.415,2.191 6.685,6.685 0 0 1 0.842,3.483 6.46,6.46 0 0 1 -1.011,3.483 6.347,6.347 0 0 1 -2.977,2.415 12.524,12.524 0 0 1 -4.719,0.786 9.157,9.157 0 0 1 -6.291,-1.91 7.92,7.92 0 0 1 -2.865,-5.224 z"
         id="path262"
         inkscape:connector-curvature="0" />
    </g>
    <g
       id="g278"
       style="fill:#ed1c24">
      <path
         transform="matrix(0.307,0,0,0.307,40.854,529.055)"
         d="m 215.692,326.924 a 47.072,47.072 0 1 1 47.072,-47.072 47.072,47.072 0 0 1 -47.072,47.072 z m 0,-84.819 a 37.747,37.747 0 1 0 37.747,37.747 37.747,37.747 0 0 0 -37.747,-37.752 z"
         id="path266"
         inkscape:connector-curvature="0" />
      <path
         transform="matrix(0.307,0,0,0.307,63.024,530.061)"
         d="m 190.72,234.333 -0.843,-0.843 -5.617,5.617 0.9,0.9 a 50.948,50.948 0 0 1 0,73.023 l -0.9,0.843 5.617,5.617 0.843,-0.843 a 59.149,59.149 0 0 0 0,-84.258 z"
         id="path268"
         inkscape:connector-curvature="0" />
      <path
         transform="matrix(0.307,0,0,0.307,36.49,530.103)"
         d="m 189.688,239.137 -5.617,-5.617 -0.9,0.843 a 59.149,59.149 0 0 0 0,84.258 l 0.9,0.843 5.617,-5.617 -0.9,-0.843 a 50.948,50.948 0 0 1 0,-73.023 z"
         id="path270"
         inkscape:connector-curvature="0" />
      <path
         d="m 104.226,618.298 h -1.466 l -0.586,-1.518 h -2.656 l -0.553,1.518 h -1.431 l 2.604,-6.656 h 1.414 z m -2.483,-2.638 -0.914,-2.466 -0.897,2.466 z"
         id="path272"
         inkscape:connector-curvature="0" />
      <path
         transform="matrix(0.307,0,0,0.307,50.989,538.176)"
         d="m 175.77,239.3 h 8.65 a 22.482,22.482 0 0 1 3.876,0 5.168,5.168 0 0 1 2.247,0.843 5.954,5.954 0 0 1 1.685,1.857 4.722,4.722 0 0 1 0.674,2.528 5,5 0 0 1 -0.842,2.809 5.618,5.618 0 0 1 -2.247,1.91 5.26,5.26 0 0 1 4.157,5.224 6.4,6.4 0 0 1 -0.73,2.865 5.616,5.616 0 0 1 -1.854,2.247 6.686,6.686 0 0 1 -2.977,1.067 H 175.77 Z m 4.381,3.6 v 5 h 6.066 a 2.529,2.529 0 0 0 1.741,-0.786 2.134,2.134 0 0 0 0.674,-1.685 2.472,2.472 0 0 0 -0.562,-1.629 2.639,2.639 0 0 0 -1.685,-0.786 h -6.235 z m 0,8.65 v 5.617 h 4.049 a 29.035,29.035 0 0 0 3.033,0 2.808,2.808 0 0 0 1.573,-0.9 2.752,2.752 0 0 0 0.618,-1.854 2.694,2.694 0 0 0 -0.505,-1.629 2.528,2.528 0 0 0 -1.348,-1.011 17.753,17.753 0 0 0 -3.876,-0.281 z"
         id="path274"
         inkscape:connector-curvature="0" />
      <path
         transform="matrix(0.307,0,0,0.307,56.234,538.064)"
         d="m 179.47,254.269 4.269,-0.393 a 4.886,4.886 0 0 0 1.517,3.146 4.774,4.774 0 0 0 3.2,1.011 4.83,4.83 0 0 0 3.2,-0.9 2.585,2.585 0 0 0 1.067,-2.078 2.023,2.023 0 0 0 -0.449,-1.292 3.427,3.427 0 0 0 -1.573,-0.955 l -3.539,-0.955 a 12.073,12.073 0 0 1 -4.719,-2.247 5.823,5.823 0 0 1 -1.067,-7.471 6.29,6.29 0 0 1 2.753,-2.191 10.724,10.724 0 0 1 4.269,-0.786 9.155,9.155 0 0 1 6.123,1.8 6.235,6.235 0 0 1 2.191,4.774 h -4.381 a 3.539,3.539 0 0 0 -1.236,-2.415 4.214,4.214 0 0 0 -2.752,-0.73 4.717,4.717 0 0 0 -2.977,0.786 1.516,1.516 0 0 0 -0.73,1.348 1.572,1.572 0 0 0 0.674,1.292 12.02,12.02 0 0 0 4.044,1.461 19.765,19.765 0 0 1 4.719,1.573 6.068,6.068 0 0 1 2.415,2.191 6.685,6.685 0 0 1 0.842,3.483 6.46,6.46 0 0 1 -1.011,3.483 6.347,6.347 0 0 1 -2.977,2.415 12.524,12.524 0 0 1 -4.719,0.786 9.157,9.157 0 0 1 -6.291,-1.91 7.92,7.92 0 0 1 -2.865,-5.224 z"
         id="path276"
         inkscape:connector-curvature="0" />
    </g>
    <g
       id="g290"
       style="fill:#161616">
      <path
         transform="matrix(0.31,0,0,0.31,-112.884,566.753)"
         d="M 449.627,354.553 H 430.834 A 19.41,19.41 0 0 1 411.48,335.2 v -33.154 h 8.02 L 418.717,286 411.48,269.507 V 246 a 19.41,19.41 0 0 1 19.354,-19.354 h 18.793 A 19.41,19.41 0 0 1 468.981,246 v 23.449 l -6.844,16.551 -0.786,16.044 h 7.63 V 335.2 a 19.41,19.41 0 0 1 -19.353,19.354 z M 417.034,307.6 v 27.6 a 13.8,13.8 0 0 0 13.8,13.8 h 18.793 a 13.8,13.8 0 0 0 13.8,-13.8 v -27.6 h -7.854 l 1.066,-22.832 6.788,-16.381 v -22.439 a 13.8,13.8 0 0 0 -13.8,-13.8 h -18.793 a 13.8,13.8 0 0 0 -13.8,13.8 v 22.439 l 7.18,16.381 1.066,22.888 z"
         id="path280"
         inkscape:connector-curvature="0" />
      <path
         d="m 29.579,646.806 c -0.73,-0.904 -2.8,-1.2 -5.983,-1.2 -3.183,0 -5.217,0.296 -6,1.2 l 1.6,5.425 h 8.782 c 0,0 2.331,-4.503 1.601,-5.425 z"
         id="path282"
         inkscape:connector-curvature="0" />
      <path
         d="m 28.64,670.265 c -0.609,0.922 -2.348,1.2 -5.043,1.2 -2.695,0 -4.452,-0.279 -5.061,-1.2 l 1.339,-5.425 h 7.426 c 0,0 1.965,4.521 1.339,5.425 z"
         id="path284"
         inkscape:connector-curvature="0" />
      <path
         d="m 5.838,657.701 8.56,-5.989 0.787,1.125 -8.56,5.989 z"
         id="path286"
         inkscape:connector-curvature="0" />
      <path
         d="m 29.747,650.813 0.783,-1.127 8.569,5.96 -0.783,1.127 z"
         id="path288"
         inkscape:connector-curvature="0" />
    </g>
    <g
       id="g302"
       style="fill:#ed1c24">
      <path
         transform="matrix(0.31,0,0,0.31,-28.218,566.753)"
         d="M 449.627,354.553 H 430.834 A 19.41,19.41 0 0 1 411.48,335.2 v -33.154 h 8.02 L 418.717,286 411.48,269.507 V 246 a 19.41,19.41 0 0 1 19.354,-19.354 h 18.793 A 19.41,19.41 0 0 1 468.981,246 v 23.449 l -6.844,16.551 -0.786,16.044 h 7.63 V 335.2 a 19.41,19.41 0 0 1 -19.353,19.354 z M 417.034,307.6 v 27.6 a 13.8,13.8 0 0 0 13.8,13.8 h 18.793 a 13.8,13.8 0 0 0 13.8,-13.8 v -27.6 h -7.854 l 1.066,-22.832 6.788,-16.381 v -22.439 a 13.8,13.8 0 0 0 -13.8,-13.8 h -18.793 a 13.8,13.8 0 0 0 -13.8,13.8 v 22.439 l 7.18,16.381 1.066,22.888 z"
         id="path292"
         inkscape:connector-curvature="0" />
      <path
         d="m 114.245,646.806 c -0.73,-0.904 -2.8,-1.2 -5.983,-1.2 -3.183,0 -5.217,0.296 -6,1.2 l 1.6,5.425 h 8.782 c 0,0 2.331,-4.503 1.601,-5.425 z"
         id="path294"
         inkscape:connector-curvature="0" />
      <path
         d="m 113.306,670.265 c -0.609,0.922 -2.348,1.2 -5.043,1.2 -2.695,0 -4.452,-0.279 -5.061,-1.2 l 1.339,-5.425 h 7.426 c 0,0 1.965,4.521 1.339,5.425 z"
         id="path296"
         inkscape:connector-curvature="0" />
      <path
         d="m 90.504,657.701 8.56,-5.989 0.787,1.125 -8.56,5.989 z"
         id="path298"
         inkscape:connector-curvature="0" />
      <path
         d="m 114.413,650.813 0.783,-1.127 8.569,5.96 -0.783,1.127 z"
         id="path300"
         inkscape:connector-curvature="0" />
    </g>
    <path
       d="m 104.58025,129.19789 c 0,0 5.81488,0 5.81488,0 -0.0179,0.43023 0.0984,2.03981 -0.24154,2.27516 -0.21619,0.14932 -0.68436,0.12654 -0.95125,0.12908 0,0 0.27285,2.53077 0.27285,2.53077 0,0 0.77085,7.59231 0.77085,7.59231 1.90549,0.30749 2.95963,1.71459 2.982,3.29001 0,0 0,18.22155 0,18.22155 0,0 0,2.15115 0,2.15115 0,1.42103 0.0477,2.80663 -1.9383,3.31531 -0.44431,0.11389 -0.88416,0.10123 -1.3419,0.10123 0,0 -8.2005,0 -8.2005,0 -2.348304,-0.0101 -3.128091,-1.21604 -3.131081,-3.03692 0,0 0,-20.24617 0,-20.24617 0.002,-1.10595 0.24303,-2.19292 1.219644,-2.99897 0.866257,-0.71494 1.486517,-0.60865 1.778747,-1.19072 0,0 0.45475,-3.27609 0.45475,-3.27609 0,0 0.72165,-6.45346 0.72165,-6.45346 0,0 -1.3419,-0.12655 -1.3419,-0.12655 0,0 0,-2.15115 0,-2.15115 0,0 3.1311,-0.12654 3.1311,-0.12654 z"
       id="Selection"
       inkscape:connector-curvature="0"
       style="fill:#ff0000;stroke:#ff0000;stroke-width:0.13735674" />
  </g>
</svg>
